<svg version="1.1" id="Layer_1" xmlns="http://www.w3.org/2000/svg" xmlns:xlink="http://www.w3.org/1999/xlink" x="0px" y="0px"
	 width="100%" viewBox="0 0 360 360" enable-background="new 0 0 360 360" xml:space="preserve">
<path fill="none" opacity="1.000000" stroke="none" 
	d="
M195.000000,361.000000 
	C130.022400,361.000000 65.544792,361.000000 1.033591,361.000000 
	C1.033591,241.064072 1.033591,121.128120 1.033591,1.096087 
	C120.894211,1.096087 240.788513,1.096087 360.841431,1.096087 
	C360.841431,120.999832 360.841431,240.999893 360.841431,361.000000 
	C305.794891,361.000000 250.647446,361.000000 195.000000,361.000000 
M246.443390,48.999859 
	C237.338913,48.666523 228.236389,48.131443 219.129547,48.044052 
	C202.799866,47.887348 186.460754,47.720356 170.139359,48.120014 
	C162.204102,48.314320 154.831757,47.419170 148.076599,43.074299 
	C147.928268,42.978893 147.522964,43.283043 146.916901,43.533100 
	C165.952744,82.676811 184.977570,121.797844 204.002380,160.918884 
	C204.423248,160.766357 204.844116,160.613846 205.264984,160.461319 
	C205.264984,141.370773 205.264984,122.280212 205.264984,102.547958 
	C216.543716,103.042404 227.471390,103.432518 238.388290,104.022141 
	C252.633896,104.791542 265.362366,109.629784 275.831451,119.406258 
	C294.145935,136.509079 296.626099,167.399200 286.493988,188.808960 
	C276.739685,209.420364 258.301788,217.135681 236.890076,218.881516 
	C228.116226,219.596893 219.230042,218.822327 210.405853,219.087509 
	C206.889175,219.193207 205.400406,217.959015 203.877213,214.800308 
	C181.700073,168.810669 159.340042,122.909187 136.989120,77.003479 
	C132.294968,67.362320 127.462029,57.788719 122.612091,48.020943 
	C84.182625,123.706161 45.934097,199.035034 7.450423,274.827026 
	C55.005398,274.827026 101.750664,274.827026 148.810715,274.827026 
	C138.084625,252.782410 127.430336,230.885345 116.425140,208.267105 
	C112.280991,218.036850 108.465187,227.032532 104.799011,235.675476 
	C92.919281,235.675476 81.537804,235.675476 69.774361,235.675476 
	C86.500320,201.257950 103.024109,167.256439 119.883392,132.564575 
	C143.137924,180.202621 166.223312,227.494156 188.926834,274.003448 
	C207.896698,274.003448 226.513260,274.696533 245.044754,273.740479 
	C255.959991,273.177368 267.012909,270.918640 277.525085,267.805603 
	C300.177979,261.097290 319.705719,249.001328 334.237427,229.992188 
	C354.919189,202.938049 359.959015,171.886795 354.754669,139.194778 
	C350.787964,114.277252 339.231689,92.971054 319.237671,76.632492 
	C298.247925,59.480267 273.767822,51.866478 246.443390,48.999859 
z"/>
<path fill="#ffffff" opacity="1.000000" stroke="none" 
	d="
M246.909637,48.999859 
	C273.767822,51.866478 298.247925,59.480267 319.237671,76.632492 
	C339.231689,92.971054 350.787964,114.277252 354.754669,139.194778 
	C359.959015,171.886795 354.919189,202.938049 334.237427,229.992188 
	C319.705719,249.001328 300.177979,261.097290 277.525085,267.805603 
	C267.012909,270.918640 255.959991,273.177368 245.044754,273.740479 
	C226.513260,274.696533 207.896698,274.003448 188.926834,274.003448 
	C166.223312,227.494156 143.137924,180.202621 119.883392,132.564575 
	C103.024109,167.256439 86.500320,201.257950 69.774361,235.675476 
	C81.537804,235.675476 92.919281,235.675476 104.799011,235.675476 
	C108.465187,227.032532 112.280991,218.036850 116.425140,208.267105 
	C127.430336,230.885345 138.084625,252.782410 148.810715,274.827026 
	C101.750664,274.827026 55.005398,274.827026 7.450423,274.827026 
	C45.934097,199.035034 84.182625,123.706161 122.612091,48.020943 
	C127.462029,57.788719 132.294968,67.362320 136.989120,77.003479 
	C159.340042,122.909187 181.700073,168.810669 203.877213,214.800308 
	C205.400406,217.959015 206.889175,219.193207 210.405853,219.087509 
	C219.230042,218.822327 228.116226,219.596893 236.890076,218.881516 
	C258.301788,217.135681 276.739685,209.420364 286.493988,188.808960 
	C296.626099,167.399200 294.145935,136.509079 275.831451,119.406258 
	C265.362366,109.629784 252.633896,104.791542 238.388290,104.022141 
	C227.471390,103.432518 216.543716,103.042404 205.264984,102.547958 
	C205.264984,122.280212 205.264984,141.370773 205.264984,160.461319 
	C204.844116,160.613846 204.423248,160.766357 204.002380,160.918884 
	C184.977570,121.797844 165.952744,82.676811 146.916901,43.533100 
	C147.522964,43.283043 147.928268,42.978893 148.076599,43.074299 
	C154.831757,47.419170 162.204102,48.314320 170.139359,48.120014 
	C186.460754,47.720356 202.799866,47.887348 219.129547,48.044052 
	C228.236389,48.131443 237.338913,48.666523 246.909637,48.999859 
z"/>
</svg>