<svg id="wave" style="transform:rotate(180deg); transition: 0.3s" viewBox="0 0
1440 250" version="1.1" xmlns="http://www.w3.org/2000/svg"><defs><linearGradient
id="sw-gradient-0" x1="0" x2="0" y1="1" y2="0"><stop stop-color="#87ceeb"
offset="0%"></stop><stop stop-color="rgba(132.969, 240.197, 255, 1)"
offset="100%"></stop></linearGradient></defs><path style="transform:translate(0,
0px); opacity:1" fill="url(#sw-gradient-0)"
d="M0,175L30,183.3C60,192,120,208,180,179.2C240,150,300,75,360,50C420,25,480,50,540,70.8C600,92,660,108,720,125C780,142,840,158,900,137.5C960,117,1020,58,1080,62.5C1140,67,1200,133,1260,145.8C1320,158,1380,117,1440,108.3C1500,100,1560,125,1620,145.8C1680,167,1740,183,1800,158.3C1860,133,1920,67,1980,70.8C2040,75,2100,150,2160,179.2C2220,208,2280,192,2340,154.2C2400,117,2460,58,2520,54.2C2580,50,2640,100,2700,133.3C2760,167,2820,183,2880,191.7C2940,200,3000,200,3060,200C3120,200,3180,200,3240,179.2C3300,158,3360,117,3420,95.8C3480,75,3540,75,3600,75C3660,75,3720,75,3780,79.2C3840,83,3900,92,3960,95.8C4020,100,4080,100,4140,104.2C4200,108,4260,117,4290,120.8L4320,125L4320,250L4290,250C4260,250,4200,250,4140,250C4080,250,4020,250,3960,250C3900,250,3840,250,3780,250C3720,250,3660,250,3600,250C3540,250,3480,250,3420,250C3360,250,3300,250,3240,250C3180,250,3120,250,3060,250C3000,250,2940,250,2880,250C2820,250,2760,250,2700,250C2640,250,2580,250,2520,250C2460,250,2400,250,2340,250C2280,250,2220,250,2160,250C2100,250,2040,250,1980,250C1920,250,1860,250,1800,250C1740,250,1680,250,1620,250C1560,250,1500,250,1440,250C1380,250,1320,250,1260,250C1200,250,1140,250,1080,250C1020,250,960,250,900,250C840,250,780,250,720,250C660,250,600,250,540,250C480,250,420,250,360,250C300,250,240,250,180,250C120,250,60,250,30,250L0,250Z"></path></svg>